<svg width="18" height="18" viewBox="0 0 18 18" fill="none" xmlns="http://www.w3.org/2000/svg">
  <g clip-path="url(#clip0_2010_814)">
    <path fill-rule="evenodd" clip-rule="evenodd" d="M5.47507 1.54097C7.15855 0.745397 9.06166 0.542718 10.8749 0.965883C12.6882 1.38905 14.305 2.41317 15.4625 3.87173C16.6199 5.33028 17.2499 7.13749 17.25 8.99949V9.74953C17.25 10.5452 16.9339 11.3082 16.3713 11.8709C15.8087 12.4335 15.0457 12.7495 14.25 12.7495C13.4544 12.7495 12.6913 12.4335 12.1287 11.8709C12.0096 11.7518 11.9016 11.6237 11.8052 11.4882C11.1183 12.262 10.1161 12.7495 9.00001 12.7495C6.92894 12.7495 5.25001 11.0706 5.25001 8.99953C5.25001 6.92847 6.92894 5.24953 9.00001 5.24953C9.84421 5.24953 10.6233 5.52849 11.25 5.99926C11.2502 5.58517 11.5859 5.24953 12 5.24953C12.4142 5.24953 12.75 5.58532 12.75 5.99953V9.74953C12.75 10.1474 12.908 10.5289 13.1893 10.8102C13.4707 11.0915 13.8522 11.2495 14.25 11.2495C14.6478 11.2495 15.0294 11.0915 15.3107 10.8102C15.592 10.5289 15.75 10.1474 15.75 9.74953V8.99958C15.7499 7.47614 15.2345 5.99749 14.2875 4.80414C13.3405 3.61078 12.0176 2.77286 10.534 2.42663C9.05045 2.08041 7.49336 2.24624 6.11597 2.89716C4.73857 3.54807 3.62188 4.6458 2.94746 6.01185C2.27304 7.37789 2.08056 8.9319 2.40132 10.4212C2.72208 11.9105 3.53722 13.2475 4.71418 14.2148C5.89115 15.1821 7.36072 15.7228 8.88396 15.749C10.4072 15.7752 11.8945 15.2853 13.104 14.3591C13.4329 14.1072 13.9036 14.1697 14.1555 14.4985C14.4073 14.8274 14.3449 15.2981 14.016 15.55C12.5377 16.6821 10.7199 17.2808 8.85817 17.2488C6.99644 17.2168 5.20029 16.5559 3.76178 15.3737C2.32326 14.1914 1.32699 12.5573 0.934946 10.737C0.542905 8.91677 0.778155 7.01742 1.60245 5.34781C2.42674 3.6782 3.79159 2.33653 5.47507 1.54097ZM11.25 8.99953C11.25 7.75689 10.2427 6.74953 9.00001 6.74953C7.75737 6.74953 6.75001 7.75689 6.75001 8.99953C6.75001 10.2422 7.75737 11.2495 9.00001 11.2495C10.2426 11.2495 11.25 10.2422 11.25 8.99953Z" fill="#3C3C3C"/>
  </g>
  <defs>
    <clipPath id="clip0_2010_814">
      <rect width="18" height="18" fill="white"/>
    </clipPath>
  </defs>
</svg>
